#!OML:ASF H:\Dans Jumps\Project 1\Capture day 1\Session 1\subject.ASF
:FULLY-SPECIFIED
:DEGREES
219
root 0.447723 13.9597 -14.9332 37.1357 3.65214 -1.78278
lowerback 37.0576 1.44554 -0.063
upperback 2.45395 2.35678 3.14557
thorax -16.1469 1.09936 2.42983
lowerneck -18.2383 -1.24735 -1.60547
upperneck -16.529 -1.54789 -1.44733
head -2.35873 -0.676008 -0.249966
rclavicle 4.37326e-015 4.37326e-015
rhumerus -25.4894 -31.744 -65.2355
rradius 16.8083
rwrist 44.4107
rhand -20.684 -24.3309
rfingers 7.12502
rthumb 5.67942 -54.2348
lclavicle 4.37326e-015 4.37326e-015
lhumerus -21.8137 15.7065 74.5575
lradius 5.00795
lwrist -13.6458
lhand -26.9864 -8.28563
lfingers 7.12502
lthumb -0.406978 21.6937
rfemur -85.1278 -0.546912 21.5941
rtibia 84.9485
rfoot -34.2136 -20.2195
rtoes 5.37899
lfemur -85.897 3.77585 -20.3286
ltibia 84.1035
lfoot -28.0775 24.1472
ltoes -10.3984
220
root 0.449502 14.0187 -14.7961 37.1413 3.68484 -1.7881
lowerback 36.0704 1.42335 -0.0411592
upperback 2.32683 2.32963 3.12445
thorax -15.9075 1.09244 2.41723
lowerneck -18.4791 -1.2444 -1.62145
upperneck -16.0121 -1.51672 -1.37996
head -2.14364 -0.666287 -0.226664
rclavicle 1.19271e-014 8.34896e-015
rhumerus -22.59 -29.9824 -67.2782
rradius 17.5616
rwrist 43.0106
rhand -21.2016 -24.5922
rfingers 7.12502
rthumb 5.17971 -54.5089
lclavicle 1.19271e-014 8.34896e-015
lhumerus -19.2702 15.5852 75.0511
lradius 5.8848
lwrist -13.6086
lhand -27.1291 -8.53857
lfingers 7.12502
lthumb -0.544772 21.4405
rfemur -84.1111 -0.42505 21.5297
rtibia 84.3579
rfoot -34.3932 -20.5232
rtoes 5.1589
lfemur -84.8929 3.7348 -20.1967
ltibia 83.5384
lfoot -28.2625 24.4105
ltoes -10.6913
221
root 0.449966 14.0817 -14.6569 37.1394 3.73598 -1.79649
lowerback 35.0577 1.39245 -0.0306514
upperback 2.17587 2.28779 3.10727
thorax -15.6761 1.08031 2.42219
lowerneck -18.7447 -1.24005 -1.6424
upperneck -15.4076 -1.4785 -1.27564
head -1.89719 -0.653745 -0.190958
rclavicle -6.75868e-015 -1.51076e-014
rhumerus -19.7652 -27.926 -69.1475
rradius 18.4533
rwrist 41.4955
rhand -21.5675 -24.8249
rfingers 7.12502
rthumb 4.82641 -54.7499
lclavicle -6.75868e-015 -1.51076e-014
lhumerus -16.7649 15.3961 75.459
lradius 7.0047
lwrist -13.3515
lhand -27.1736 -8.86267
lfingers 7.12502
lthumb -0.587762 21.1163
rfemur -83.0431 -0.339523 21.5045
rtibia 83.6907
rfoot -34.5573 -20.812
rtoes 4.74614
lfemur -83.8491 3.74175 -20.0896
ltibia 82.8973
lfoot -28.401 24.6434
ltoes -11.2226
222
root 0.449387 14.1507 -14.5135 37.0856 3.80127 -1.81794
lowerback 34.073 1.35384 -0.0291919
upperback 2.00399 2.23412 3.09524
thorax -15.4708 1.06365 2.44262
lowerneck -19.0398 -1.23528 -1.66008
upperneck -14.6982 -1.43724 -1.14197
head -1.61394 -0.640682 -0.147036
rclavicle -2.46493e-014 -1.86858e-014
rhumerus -17.0745 -25.5512 -70.8035
rradius 19.5388
rwrist 39.6715
rhand -21.7644 -25.0182
rfingers 7.12502
rthumb 4.63629 -54.9474
lclavicle -2.46493e-014 -1.86858e-014
lhumerus -14.3138 15.143 75.7698
lradius 8.32172
lwrist -12.8588
lhand -26.9962 -9.04369
lfingers 7.12502
lthumb -0.416388 20.9357
rfemur -81.8548 -0.289332 21.5293
rtibia 82.9313
rfoot -34.7017 -21.104
rtoes 4.04433
lfemur -82.6965 3.81232 -19.998
ltibia 82.1676
lfoot -28.4984 24.8416
ltoes -12.0212
223
root 0.447418 14.2281 -14.3635 36.9338 3.89582 -1.84453
lowerback 33.1639 1.30102 -0.0370056
upperback 1.82002 2.16191 3.09546
thorax -15.3021 1.0395 2.48842
lowerneck -19.3506 -1.22834 -1.67129
upperneck -13.8889 -1.39354 -0.99078
head -1.29826 -0.626981 -0.0992176
rclavicle -7.15625e-015 -2.78299e-015
rhumerus -14.5676 -22.884 -72.2015
rradius 20.8714
rwrist 37.4865
rhand -21.84 -25.1873
rfingers 7.12502
rthumb 4.56329 -55.1181
lclavicle -7.15625e-015 -2.78299e-015
lhumerus -11.9255 14.8342 75.9815
lradius 9.78849
lwrist -12.131
lhand -27.0907 -9.50947
lfingers 7.12502
lthumb -0.507672 20.4697
rfemur -80.4674 -0.288687 21.6064
rtibia 82.0655
rfoot -34.8406 -21.4069
rtoes 3.04625
lfemur -81.3585 3.93985 -19.915
ltibia 81.333
lfoot -28.5655 25.0034
ltoes -13.1421
224
root 0.444247 14.3137 -14.2058 36.6823 4.00894 -1.87828
lowerback 32.3349 1.23988 -0.0617926
upperback 1.62392 2.07588 3.10788
thorax -15.1745 1.01039 2.56126
lowerneck -19.6611 -1.22188 -1.67271
upperneck -12.9955 -1.35359 -0.828184
head -0.957076 -0.615336 -0.0500222
rclavicle 2.46493e-014 9.54166e-015
rhumerus -12.2966 -19.9632 -73.3026
rradius 22.5051
rwrist 34.9867
rhand -21.8245 -25.3297
rfingers 7.12502
rthumb 4.57824 -55.2602
lclavicle 2.46493e-014 9.54166e-015
lhumerus -9.60523 14.4667 76.0912
lradius 11.4296
lwrist -11.0425
lhand -27.0501 -9.94256
lfingers 7.12502
lthumb -0.468431 20.0367
rfemur -78.8752 -0.332114 21.7324
rtibia 81.0871
rfoot -34.9715 -21.7132
rtoes 1.76957
lfemur -79.8272 4.13455 -19.8414
ltibia 80.3902
lfoot -28.6135 25.114
ltoes -14.5358
225
root 0.440376 14.4067 -14.04 36.3442 4.13098 -1.92244
lowerback 31.565 1.17342 -0.103722
upperback 1.41961 1.97917 3.12975
thorax -15.0757 0.977657 2.65697
lowerneck -19.9578 -1.21489 -1.66628
upperneck -12.0461 -1.317 -0.652611
head -0.599362 -0.604717 0.00179558
rclavicle -1.27222e-014 -3.73715e-014
rhumerus -10.2855 -16.8911 -74.085
rradius 24.4644
rwrist 32.3938
rhand -21.8134 -25.4301
rfingers 7.12502
rthumb 4.58895 -55.3604
lclavicle -1.27222e-014 -3.73715e-014
lhumerus -7.28139 10.0197 76.6143
lradius 13.2936
lwrist -5.71262
lhand -27.6194 -10.002
lfingers 7.12502
lthumb -1.01833 19.9754
rfemur -77.0905 -0.414749 21.9022
rtibia 79.9917
rfoot -35.0943 -22.0015
rtoes 0.286172
lfemur -78.1144 4.39713 -19.7728
ltibia 79.3378
lfoot -28.668 25.1529
ltoes -16.1085
226
root 0.436153 14.5067 -13.8651 35.9292 4.26234 -1.97632
lowerback 30.8407 1.0993 -0.151961
upperback 1.20559 1.87143 3.15362
thorax -15.002 0.940282 2.76165
lowerneck -20.2297 -1.21376 -1.66108
upperneck -11.0591 -1.29082 -0.443759
head -0.230228 -0.597492 0.0642089
rclavicle 3.18055e-015 1.63003e-014
rhumerus -8.54202 -13.7825 -74.557
rradius 26.7358
rwrist 29.9676
rhand -21.8219 -25.4952
rfingers 7.12502
rthumb 4.5807 -55.4257
lclavicle 3.18055e-015 1.63003e-014
lhumerus -5.21377 6.15895 76.63
lradius 15.4472
lwrist -0.873656
lhand -28.1241 -10.0643
lfingers 7.12502
lthumb -1.50578 19.9101
rfemur -75.1174 -0.537309 22.1093
rtibia 78.7748
rfoot -35.203 -22.2663
rtoes -1.34947
lfemur -76.2258 4.72411 -19.7052
ltibia 78.1724
lfoot -28.7404 25.1117
ltoes -17.8066
227
root 0.431968 14.6135 -13.6799 35.4519 4.39927 -2.03049
lowerback 30.1365 1.01564 -0.20592
upperback 0.980368 1.74875 3.17063
thorax -14.9435 0.896301 2.86702
lowerneck -20.4704 -1.22066 -1.66423
upperneck -10.0407 -1.27725 -0.188318
head 0.148893 -0.593712 0.142835
rclavicle -1.07344e-014 -2.46493e-014
rhumerus -7.04554 -10.7423 -74.7512
rradius 29.2773
rwrist 27.9205
rhand -21.8153 -25.5694
rfingers 7.12502
rthumb 4.58708 -55.4997
lclavicle -1.07344e-014 -2.46493e-014
lhumerus -3.38769 2.79722 76.2484
lradius 17.8782
lwrist 3.46137
lhand -28.5977 -10.1504
lfingers 7.12502
lthumb -1.96321 19.8204
rfemur -72.9613 -0.699559 22.3323
rtibia 77.428
rfoot -35.295 -22.5055
rtoes -3.11203
lfemur -74.1643 5.09921 -19.6361
ltibia 76.885
lfoot -28.8275 24.9979
ltoes -19.5646
228
root 0.428089 14.728 -13.4825 34.8935 4.5594 -2.07079
lowerback 29.4696 0.911885 -0.253381
upperback 0.744375 1.6013 3.17737
thorax -14.9069 0.840417 2.96627
lowerneck -20.6923 -1.23542 -1.67511
upperneck -8.97072 -1.27721 0.107851
head 0.547273 -0.59355 0.235896
rclavicle 8.34896e-015 3.97569e-016
rhumerus -5.77754 -7.85994 -74.7099
rradius 32.0128
rwrist 26.3592
rhand -21.7698 -25.6875
rfingers 7.12502
rthumb 4.63107 -55.6169
lclavicle 8.34896e-015 3.97569e-016
lhumerus -1.80533 -0.161162 75.5626
lradius 20.5318
lwrist 7.29346
lhand -29.0742 -10.3128
lfingers 7.12502
lthumb -2.42337 19.6532
rfemur -70.58 -0.916462 22.556
rtibia 75.9333
rfoot -35.3693 -22.7266
rtoes -4.97496
lfemur -71.8873 5.48936 -19.552
ltibia 75.4558
lfoot -28.9369 24.8138
ltoes -21.3094
229
root 0.424815 14.8485 -13.2735 34.3007 4.73147 -2.09765
lowerback 28.7788 0.793789 -0.299164
upperback 0.489018 1.43406 3.1734
thorax -14.8748 0.775241 3.05975
lowerneck -20.8968 -1.26259 -1.71031
upperneck -7.8284 -1.29445 0.439716
head 0.973069 -0.59813 0.344715
rclavicle -7.15625e-015 -2.0276e-014
rhumerus -4.69935 -5.21883 -74.4827
rradius 34.8287
rwrist 25.3048
rhand -21.6764 -25.8772
rfingers 7.12502
rthumb 4.72124 -55.8045
lclavicle -7.15625e-015 -2.0276e-014
lhumerus -0.459966 -2.78418 74.6597
lradius 23.3358
lwrist 10.6894
lhand -29.5535 -10.5229
lfingers 7.12502
lthumb -2.88623 19.4373
rfemur -68.035 -1.1723 22.762
rtibia 74.2799
rfoot -35.3973 -22.9148
rtoes -6.8811
lfemur -69.451 5.88099 -19.4481
ltibia 73.8761
lfoot -29.0329 24.5718
ltoes -22.9709
230
root 0.423417 14.9766 -13.0506 33.6264 4.89461 -2.11706
lowerback 28.0982 0.671322 -0.343707
upperback 0.226141 1.25999 3.16115
thorax -14.85 0.706289 3.14468
lowerneck -21.0802 -1.29847 -1.76256
upperneck -6.5997 -1.32687 0.765619
head 1.43085 -0.607595 0.455156
rclavicle 1.59028e-015 9.54166e-015
rhumerus -3.78875 -2.87192 -74.1132
rradius 37.6112
rwrist 24.6621
rhand -21.5256 -26.1355
rfingers 7.12502
rthumb 4.86686 -56.0596
lclavicle 1.59028e-015 9.54166e-015
lhumerus 0.673753 -5.08991 73.6309
lradius 26.1746
lwrist 13.6619
lhand -29.9625 -10.6934
lfingers 7.12502
lthumb -3.28124 19.2611
rfemur -65.2574 -1.45338 22.933
rtibia 72.443
rfoot -35.369 -23.057
rtoes -8.80056
lfemur -66.7813 6.27203 -19.3184
ltibia 72.1257
lfoot -29.1054 24.2916
ltoes -24.4869
